<mxfile host="app.diagrams.net" modified="2024-02-28T16:31:40.829Z" agent="Mozilla/5.0 (Windows NT 10.0; Win64; x64) AppleWebKit/537.36 (KHTML, like Gecko) Chrome/122.0.0.0 Safari/537.36" version="23.1.7" etag="pKDPYYbZR5-WB6EPeshi" type="github">
  <diagram name="Seite-1" id="n3btgfED4qjtHIGkaXRQ">
    <mxGraphModel>
      <root>
        <mxCell id="0" />
        <mxCell id="1" parent="0" />
      </root>
    </mxGraphModel>
  </diagram>
</mxfile>
